<svg xmlns="http://www.w3.org/2000/svg" viewBox="0 0 49.75 47.5">
        <path id="text2421" d="M22.531,47.5V43.719q0-4.468-1.937-15.938a68.845,68.845,0,0,0-2.875-11.25,42.087,42.087,0,0,0-4.25-9.312A4.915,4.915,0,0,0,9.375,4.656a3.852,3.852,0,0,0-3.75,2.063,9.039,9.039,0,0,0-.969,4.156,12.639,12.639,0,0,0,3.407,8.594H2.75A16.049,16.049,0,0,1,0,10.563,10.753,10.753,0,0,1,2.625,2.875,8.737,8.737,0,0,1,9.219,0a8.941,8.941,0,0,1,7.812,4.125,43.208,43.208,0,0,1,5.313,11.313,87.534,87.534,0,0,1,2.531,10.718,87.351,87.351,0,0,1,2.531-10.718A41.156,41.156,0,0,1,32.719,4.125,8.941,8.941,0,0,1,40.531,0a8.738,8.738,0,0,1,6.594,2.875,10.753,10.753,0,0,1,2.625,7.688A16.049,16.049,0,0,1,47,19.469H41.688a12.643,12.643,0,0,0,3.406-8.594,9.039,9.039,0,0,0-.969-4.156,3.852,3.852,0,0,0-3.75-2.063,4.915,4.915,0,0,0-4.094,2.563,42.087,42.087,0,0,0-4.25,9.312,68.845,68.845,0,0,0-2.875,11.25Q27.219,39.25,27.219,43.719V47.5H22.531"/>
</svg>
