<svg xmlns="http://www.w3.org/2000/svg" viewBox="0 0 49.063 47.688">

        <path id="text2433" d="M10.094,11.438A11.116,11.116,0,0,0,7.688,7.875,11.7,11.7,0,0,0,4.156,5.5,10.056,10.056,0,0,0,0,4.688V0A15.015,15.015,0,0,1,5.938,1.156,16.3,16.3,0,0,1,11,4.563a15.3,15.3,0,0,1,3.438,5.093,11.084,11.084,0,0,0,2.406,3.563,11.677,11.677,0,0,0,3.531,2.375,10.075,10.075,0,0,0,4.156.812,10.506,10.506,0,0,0,4.157-.812,11,11,0,0,0,3.531-2.375,11.116,11.116,0,0,0,2.406-3.563,15.281,15.281,0,0,1,3.438-5.093,16.288,16.288,0,0,1,5.062-3.407A15.012,15.012,0,0,1,49.063,0V4.688a10.064,10.064,0,0,0-4.157.812,11.677,11.677,0,0,0-3.531,2.375,11.084,11.084,0,0,0-2.406,3.563,15.731,15.731,0,0,1-3.438,5.093,17.135,17.135,0,0,1-2.843,2.219,17.135,17.135,0,0,1,2.843,2.219,15.3,15.3,0,0,1,4.594,11.125,15.458,15.458,0,0,1-1.156,5.937,15.944,15.944,0,0,1-3.438,5.094,16.285,16.285,0,0,1-5.062,3.406,15.016,15.016,0,0,1-5.938,1.157,14.3,14.3,0,0,1-5.937-1.157,17.294,17.294,0,0,1-5.063-3.406,15.925,15.925,0,0,1-3.437-5.094,15.44,15.44,0,0,1-1.156-5.937,15.682,15.682,0,0,1,1.156-6.031,14.471,14.471,0,0,1,3.437-5.094,17.11,17.11,0,0,1,2.875-2.219,15.6,15.6,0,0,1-2.875-2.219,15.26,15.26,0,0,1-3.437-5.093M28.688,21.906a11.044,11.044,0,0,0-8.313,0,12.835,12.835,0,0,0-3.531,2.375,11.551,11.551,0,0,0-2.406,3.563,11.022,11.022,0,0,0-.813,4.25,10.78,10.78,0,0,0,.813,4.156,11.551,11.551,0,0,0,2.406,3.563,12.835,12.835,0,0,0,3.531,2.375,11.044,11.044,0,0,0,8.313,0,12.865,12.865,0,0,0,3.531-2.375,11.586,11.586,0,0,0,2.406-3.563,10.8,10.8,0,0,0,.813-4.156,11.041,11.041,0,0,0-.813-4.25,11.586,11.586,0,0,0-2.406-3.563,12.865,12.865,0,0,0-3.531-2.375"/>

</svg>
