<svg xmlns="http://www.w3.org/2000/svg" viewBox="0 0 39.688 46.656">
        <path id="text2465" d="M24.75,25.688H14.938a35.475,35.475,0,0,1-2.594,11.531,35.77,35.77,0,0,1-5.875,9.437H0a33.351,33.351,0,0,0,8-11.25,31.3,31.3,0,0,0,2.219-9.718H.938V21h9.281A31.309,31.309,0,0,0,8,11.281,34.268,34.268,0,0,0,0,0H6.469a36.7,36.7,0,0,1,5.875,9.469A34.419,34.419,0,0,1,14.938,21H24.75A34.394,34.394,0,0,1,27.344,9.469,36.673,36.673,0,0,1,33.219,0h6.469a34.253,34.253,0,0,0-8,11.281A31.281,31.281,0,0,0,29.469,21h8.969v4.688H29.469a31.275,31.275,0,0,0,2.219,9.718,33.337,33.337,0,0,0,8,11.25H33.219a35.744,35.744,0,0,1-5.875-9.437A36.2,36.2,0,0,1,24.75,25.688"/>
</svg>
