<svg xmlns="http://www.w3.org/2000/svg" viewBox="0 0 45.219 36.031">
        <path id="text2445" d="M0,25.5a38.418,38.418,0,0,0,5.469,2.938,36.865,36.865,0,0,0,14.844,2.906,39.724,39.724,0,0,0,9.718-1.156q-.406-.345-.75-.688a9.171,9.171,0,0,1-2.75-6.656,9.342,9.342,0,0,1,.688-3.563,8.64,8.64,0,0,1,2.062-3.062,10.051,10.051,0,0,1,3.032-2.063,9.052,9.052,0,0,1,3.562-.687,8.635,8.635,0,0,1,3.563.687,9.741,9.741,0,0,1,3.031,2.063,9.454,9.454,0,0,1,2.062,3.062,9.342,9.342,0,0,1,.688,3.563,9.577,9.577,0,0,1-.688,3.594,7.967,7.967,0,0,1-2.375,3.218,21.278,21.278,0,0,1-5.218,3.125,41.959,41.959,0,0,1-16.625,3.25,40.949,40.949,0,0,1-16.625-3.25Q1.781,31.938,0,31V25.5m34.094,1.719a4.782,4.782,0,0,0,3.562,0,5.371,5.371,0,0,0,1.532-1.031,5.1,5.1,0,0,0,1.031-1.532,4.775,4.775,0,0,0,.344-1.812,4.7,4.7,0,0,0-.344-1.781,5.086,5.086,0,0,0-1.031-1.532A5.333,5.333,0,0,0,37.656,18.5a4.782,4.782,0,0,0-3.562,0,5.353,5.353,0,0,0-1.531,1.031,5.068,5.068,0,0,0-1.032,1.532,4.656,4.656,0,0,0-.343,1.781,4.736,4.736,0,0,0,.343,1.812,5.083,5.083,0,0,0,1.032,1.532,5.334,5.334,0,0,0,1.531,1.031M45.219,10.531A38.407,38.407,0,0,0,39.75,7.594,36.848,36.848,0,0,0,24.906,4.688a39.676,39.676,0,0,0-9.718,1.156q.4.343.75.687a9.175,9.175,0,0,1,2.75,6.657A9.375,9.375,0,0,1,18,16.75a8.657,8.657,0,0,1-2.062,3.063,10.059,10.059,0,0,1-3.032,2.062,9.056,9.056,0,0,1-3.562.688,8.635,8.635,0,0,1-3.563-.688A9.756,9.756,0,0,1,2.75,19.813,9.468,9.468,0,0,1,.688,16.75,9.337,9.337,0,0,1,0,13.188,9.577,9.577,0,0,1,.688,9.594,7.97,7.97,0,0,1,3.063,6.375,21.26,21.26,0,0,1,8.281,3.25,41.956,41.956,0,0,1,24.906,0,40.949,40.949,0,0,1,41.531,3.25q1.907.845,3.688,1.781v5.5M11.125,8.813a4.51,4.51,0,0,0-1.781-.344,4.507,4.507,0,0,0-1.781.344A5.35,5.35,0,0,0,6.031,9.844,5.079,5.079,0,0,0,5,11.375a4.765,4.765,0,0,0-.344,1.813A4.68,4.68,0,0,0,5,14.969,5.094,5.094,0,0,0,6.031,16.5a5.313,5.313,0,0,0,1.532,1.031,4.524,4.524,0,0,0,1.781.344,4.528,4.528,0,0,0,1.781-.344A5.332,5.332,0,0,0,12.656,16.5a5.075,5.075,0,0,0,1.032-1.531,4.679,4.679,0,0,0,.343-1.781,4.764,4.764,0,0,0-.343-1.813,5.086,5.086,0,0,0-1.032-1.531,5.307,5.307,0,0,0-1.531-1.031"/>
</svg>
