<svg xmlns="http://www.w3.org/2000/svg" viewBox="0 0 38.688 48.406">

        <path id="text2457" d="M26.813,37.688a7.54,7.54,0,0,0-.282,1.812,4.749,4.749,0,0,0,.282,1.781,4.048,4.048,0,0,0,.875,1.282,4.526,4.526,0,0,0,1.25.843,5.407,5.407,0,0,0,2.125.313,5.415,5.415,0,0,0,2.25-.438,6.946,6.946,0,0,0,2.062-1.343l3.313,3.312a13.673,13.673,0,0,1-3.625,2.375,9.19,9.19,0,0,1-4,.781,9.6,9.6,0,0,1-3.875-.656,9.21,9.21,0,0,1-2.813-1.875A8.415,8.415,0,0,1,22.5,43.094a9.619,9.619,0,0,1-.625-3.594,10.493,10.493,0,0,1,.656-3.875,39.9,39.9,0,0,1,4.625-8.812A30.353,30.353,0,0,0,31.5,18.906a11.956,11.956,0,0,0,.688-4.187A11.268,11.268,0,0,0,31.5,10.5a9.47,9.47,0,0,0-2.062-3.062,9.734,9.734,0,0,0-3.032-2.063,8.63,8.63,0,0,0-3.562-.687,9.06,9.06,0,0,0-3.563.687A10.059,10.059,0,0,0,16.25,7.438,8.64,8.64,0,0,0,14.188,10.5a9.421,9.421,0,0,0-.688,3.594,8.614,8.614,0,0,0,.688,3.562q.843,1.844,2.406,4.625a14.036,14.036,0,0,1,2.094,6.938A9.375,9.375,0,0,1,18,32.781a9.474,9.474,0,0,1-2.062,3.063,9.732,9.732,0,0,1-3.032,2.062,8.614,8.614,0,0,1-3.562.688,9.043,9.043,0,0,1-3.563-.688A10.055,10.055,0,0,1,2.75,35.844,8.635,8.635,0,0,1,.688,32.781a9.648,9.648,0,0,1,0-7.156A9.438,9.438,0,0,1,2.75,22.563,9.729,9.729,0,0,1,5.781,20.5a8.635,8.635,0,0,1,3.563-.687h.531a13.988,13.988,0,0,1-1.062-5.688A13.649,13.649,0,0,1,9.844,8.688a14.5,14.5,0,0,1,3.094-4.594A14.166,14.166,0,0,1,17.5,1.031,13.584,13.584,0,0,1,22.844,0a12.883,12.883,0,0,1,5.344,1.031A15.122,15.122,0,0,1,32.75,4.094a13.868,13.868,0,0,1,3.094,4.594,16.051,16.051,0,0,1,1.031,6.062,15.482,15.482,0,0,1-1.031,5.969,42.738,42.738,0,0,1-4.781,8.687,28.184,28.184,0,0,0-4.25,8.282M11.125,24.844A4.528,4.528,0,0,0,9.344,24.5a4.524,4.524,0,0,0-1.781.344,5.371,5.371,0,0,0-1.532,1.031A5.094,5.094,0,0,0,5,27.406a4.765,4.765,0,0,0-.344,1.813A4.676,4.676,0,0,0,5,31a5.082,5.082,0,0,0,1.031,1.531,5.354,5.354,0,0,0,1.532,1.032,4.524,4.524,0,0,0,1.781.343,4.527,4.527,0,0,0,1.781-.343,5.349,5.349,0,0,0,1.531-1.032A5.086,5.086,0,0,0,13.688,31a4.675,4.675,0,0,0,.343-1.781,4.764,4.764,0,0,0-.343-1.813,5.1,5.1,0,0,0-1.032-1.531,5.366,5.366,0,0,0-1.531-1.031"/>

</svg>
