<svg xmlns="http://www.w3.org/2000/svg" viewBox="0 0 49.656 59.625">
        <path id="text2437" d="M37.813,45.281a24.507,24.507,0,0,0,5.312-7.968,24.818,24.818,0,0,0,1.844-9.5,26.732,26.732,0,0,0-.531-6.313q-.813-3.032-2.25-3.031-.813,0-2.282,2.937a20.657,20.657,0,0,0-2.093,9.375v14.5m-3.75,8.625q-1.344.718-2.75,1.344a25.266,25.266,0,0,1-7.563,1.969V52.5a22.55,22.55,0,0,0,5.781-1.594,26.477,26.477,0,0,0,3.657-1.937q-.063-.718-.063-1.5V18.719a40.173,40.173,0,0,0-.656-8.406q-1-4.376-2.469-4.375-1.5,0-4.156,5.593a21.572,21.572,0,0,0-2.094,9.375V47.5H19.063V18.719a40.435,40.435,0,0,0-.657-8.406q-.969-4.376-2.468-4.375t-4.157,5.593a21.557,21.557,0,0,0-2.093,9.375V47.5H5V18.719A36.62,36.62,0,0,0,3.313,7.125,19.577,19.577,0,0,0,0,1.25H4.813a12.342,12.342,0,0,1,2.156,3A20.85,20.85,0,0,1,8.656,8.875a16.438,16.438,0,0,1,2.5-4.812Q14.312,0,16.313,0q2.219,0,4.718,4.25a16.979,16.979,0,0,1,1.688,4.625,16.414,16.414,0,0,1,2.5-4.812Q28.375,0,30.688,0q2.219,0,4.718,4.25a12.452,12.452,0,0,1,1.688,4.625,72.48,72.48,0,0,1,.625,7.469,11.869,11.869,0,0,1,1.562-2.406q2.282-2.72,4-2.719,2.5,0,4.344,4.937a33.046,33.046,0,0,1,2.031,11.657,28.746,28.746,0,0,1-2.187,11.281,29.344,29.344,0,0,1-6.531,9.687,33.685,33.685,0,0,1-2.75,2.407,18.785,18.785,0,0,0,.906,2.843,17.6,17.6,0,0,0,3.781,5.594H36.813a27.885,27.885,0,0,1-2.063-3.812q-.375-.939-.687-1.907"/>

</svg>
