<svg xmlns="http://www.w3.org/2000/svg" viewBox="0 0 46.625 42.406">
        <path id="text2429" d="M17.844,28.344H0V23.656H10.75a14.8,14.8,0,0,1-1.875-3.125,13.94,13.94,0,0,1-1.156-5.625A14.164,14.164,0,0,1,8.875,9.188a14.883,14.883,0,0,1,3.438-4.844,16.2,16.2,0,0,1,5.062-3.25A15.768,15.768,0,0,1,23.313,0,15.023,15.023,0,0,1,29.25,1.094a17.323,17.323,0,0,1,5.063,3.25A14.91,14.91,0,0,1,37.75,9.188a14.164,14.164,0,0,1,1.156,5.718,13.94,13.94,0,0,1-1.156,5.625,14.8,14.8,0,0,1-1.875,3.125h10.75v4.688H28.75V23.656A12.579,12.579,0,0,0,31,22.063a9.629,9.629,0,0,0,3.219-7.188,9.573,9.573,0,0,0-.813-3.906A10.538,10.538,0,0,0,31,7.656a12.262,12.262,0,0,0-3.531-2.218,10.65,10.65,0,0,0-4.156-.75,11.044,11.044,0,0,0-7.688,2.968,10.538,10.538,0,0,0-2.406,3.313,9.715,9.715,0,0,0,0,7.781,10.549,10.549,0,0,0,2.406,3.313,10.936,10.936,0,0,0,2.219,1.593v4.688M0,42.406V37.719H46.625v4.687H0"/>

</svg>
