<svg xmlns="http://www.w3.org/2000/svg" viewBox="0 0 50.75 60.5">
        <path id="text2441" d="M42.313,56.406a9.616,9.616,0,0,1-3.875-.656,9.21,9.21,0,0,1-2.813-1.875,8.415,8.415,0,0,1-1.875-2.781,9.709,9.709,0,0,1-.625-3.625V18.719a40.173,40.173,0,0,0-.656-8.406q-1-4.376-2.469-4.375-1.5,0-4.156,5.593a21.572,21.572,0,0,0-2.094,9.375V47.5H19.063V18.719a40.435,40.435,0,0,0-.657-8.406q-.969-4.376-2.468-4.375t-4.157,5.593a21.571,21.571,0,0,0-2.093,9.375V47.5H5V18.719A36.62,36.62,0,0,0,3.313,7.125,19.577,19.577,0,0,0,0,1.25H4.813a12.342,12.342,0,0,1,2.156,3A20.85,20.85,0,0,1,8.656,8.875a16.438,16.438,0,0,1,2.5-4.812Q14.312,0,16.313,0q2.219,0,4.718,4.25a16.979,16.979,0,0,1,1.688,4.625,16.414,16.414,0,0,1,2.5-4.812Q28.375,0,30.688,0q2.219,0,4.718,4.25a12.452,12.452,0,0,1,1.688,4.625,53.67,53.67,0,0,1,.625,7.469V47.5A4.329,4.329,0,0,0,38,49.281a4.081,4.081,0,0,0,.875,1.282,4.556,4.556,0,0,0,1.25.843,5.41,5.41,0,0,0,2.125.313h1.813V47.656l6.687,6.407L44.063,60.5V56.406h-1.75"/>
</svg>
