<svg xmlns="http://www.w3.org/2000/svg" viewBox="0 0 48.719 48.406">
        <path id="text2461" d="M25.688,33.594q-.564-.845-1.063-1.781a21.906,21.906,0,0,1-2.531-10.469V18.719a40.173,40.173,0,0,0-.656-8.406q-1-4.376-2.469-4.375-1.5,0-4.156,5.593a21.572,21.572,0,0,0-2.094,9.375V28.75H8.031V18.719a32.9,32.9,0,0,0-.812-8.406Q5.968,5.938,2.25,5.938H0V0H2.625A7.926,7.926,0,0,1,9.844,4.25a15.253,15.253,0,0,1,1.844,4.625,16.391,16.391,0,0,1,2.5-4.812Q17.344,0,19.656,0q2.219,0,4.719,4.25a12.469,12.469,0,0,1,1.688,4.625,53.824,53.824,0,0,1,.625,7.469v3.469a21.945,21.945,0,0,0,1.187,7.656A14.062,14.062,0,0,1,30.5,23.438a10.722,10.722,0,0,1,3.75-2.375,11.64,11.64,0,0,1,4.344-.75,9.885,9.885,0,0,1,3.875.75,10.053,10.053,0,0,1,3.281,2.218,10.165,10.165,0,0,1,0,14.407,10.98,10.98,0,0,1-3.281,2.218,10.178,10.178,0,0,1-4.188.75,15.121,15.121,0,0,1-4.812-.75,13.308,13.308,0,0,1-4.219-2.312q-.531,1.374-1.125,2.594a13.317,13.317,0,0,1-3.281,4.343,16.7,16.7,0,0,1-4.594,2.875,14.646,14.646,0,0,1-5.375,1h-1.75V43.719h1.75a8.717,8.717,0,0,0,3.563-.656,10.085,10.085,0,0,0,2.968-1.875,10.611,10.611,0,0,0,2.188-2.782,35.311,35.311,0,0,0,2.094-4.812M31,32.375a10.335,10.335,0,0,0,4.531,3.188,10.022,10.022,0,0,0,2.782.406,5.883,5.883,0,0,0,2.375-.406,5.657,5.657,0,0,0,3-2.969,5.087,5.087,0,0,0,.406-2.094,5.609,5.609,0,0,0-.406-2.125,5.358,5.358,0,0,0-1.219-1.781,6.074,6.074,0,0,0-1.781-1.188A5.135,5.135,0,0,0,38.625,25a6.685,6.685,0,0,0-2.219.406,4.818,4.818,0,0,0-1.937,1.188A18.583,18.583,0,0,0,31,32.375"/>

</svg>
