<svg xmlns="http://www.w3.org/2000/svg" viewBox="0 0 38.88 45.342">
      <path d="M5.6,8.078c2.934-3,7.92-5.738,11.489-2.162,2.746,2.751,1.918,5.81.2,8.669C13,21.705,6.7,27.409.651,33a2.273,2.273,0,0,0,1.591,3.841c11.488-.235,22.975-.268,34.465-.268,2.895,0,2.9-4.5,0-4.5-11.49,0-22.977.033-34.465.268l1.591,3.841c5.135-4.743,10.278-9.531,14.484-15.145,2.817-3.761,5.959-7.717,4.869-12.633C20.773-2.483,8.991-1.832,2.417,4.9.392,6.969,3.571,10.154,5.6,8.078Z"/>
      <line x1="27.823" y1="21.342" x2="27.823" y2="43.342" fill="none" stroke-linecap="round" stroke-linejoin="round" stroke-width="4"/>
</svg>
