<svg xmlns="http://www.w3.org/2000/svg" viewBox="0 0 40.015 40.457">
      <path d="M34.278,28.485c1.242.413,2.9,1.241,3.311,2.483,1.706,5.118-2.069,7.862-4.966,7.448-6.159-.879-6.769-8.234-2.9-13.656a20.038,20.038,0,0,0,4.138-9.931c.3-1.77.154-4.4-2.483-8.277A14.806,14.806,0,0,0,21.691,2H18.324a14.806,14.806,0,0,0-9.69,4.552C6,10.433,5.856,13.059,6.151,14.829a20.038,20.038,0,0,0,4.138,9.931c3.872,5.422,3.262,12.777-2.9,13.656-2.9.414-6.672-2.33-4.966-7.448C2.84,29.726,4.5,28.9,5.737,28.485" fill="none" stroke-linecap="round" stroke-linejoin="round" stroke-width="4"/>
      <line x1="16.008" y1="12.908" x2="24.008" y2="12.908" fill="none" stroke-linecap="round" stroke-linejoin="round" stroke-width="4"/>
      <line x1="20.008" y1="20.908" x2="20.008" y2="12.908" fill="none" stroke-linecap="round" stroke-linejoin="round" stroke-width="4"/>
</svg>
