<svg xmlns="http://www.w3.org/2000/svg" viewBox="0 0 40.015 40.457">
      <path d="M5.737,11.973C4.5,11.559,2.84,10.731,2.426,9.49.72,4.371,4.5,1.627,7.392,2.041c6.159.88,6.769,8.235,2.9,13.656a20.042,20.042,0,0,0-4.138,9.932C5.856,27.4,6,30.024,8.634,33.905a14.806,14.806,0,0,0,9.69,4.552h3.367a14.806,14.806,0,0,0,9.69-4.552c2.637-3.881,2.778-6.506,2.483-8.276A20.042,20.042,0,0,0,29.726,15.7c-3.872-5.421-3.262-12.776,2.9-13.656,2.9-.414,6.672,2.33,4.966,7.449-.414,1.241-2.069,2.069-3.311,2.483" fill="none" stroke="#000" stroke-linecap="round" stroke-linejoin="round" stroke-width="4"/>
      <line x1="16.008" y1="19.549" x2="24.008" y2="19.549" fill="none" stroke="#000" stroke-linecap="round" stroke-linejoin="round" stroke-width="4"/>
      <line x1="20.008" y1="27.549" x2="20.008" y2="19.549" fill="none" stroke="#000" stroke-linecap="round" stroke-linejoin="round" stroke-width="4"/>
</svg>
